<?xml version="1.0" encoding="utf-8"?>
<!-- Generator: Adobe Illustrator 15.0.0, SVG Export Plug-In . SVG Version: 6.00 Build 0)  -->
<!DOCTYPE svg PUBLIC "-//W3C//DTD SVG 1.1//EN" "http://www.w3.org/Graphics/SVG/1.1/DTD/svg11.dtd">
<svg version="1.1" id="Layer_1" xmlns="http://www.w3.org/2000/svg" xmlns:xlink="http://www.w3.org/1999/xlink" x="0px" y="0px"
	 width="103.477px" height="38.869px" viewBox="0 0 103.477 38.869" enable-background="new 0 0 103.477 38.869"
	 xml:space="preserve">
<g>
	<g id="XMLID_3_">
		<path fill="#750096" d="M98.141,29.152c1.779,2.1-0.9,5.81-3.841,3.84C91.55,29.772,96.141,26.803,98.141,29.152z"/>
		<path fill="#750096" d="M92.62,25.553c2.27,8.33-12.75,8.699-11.28,0.72c0.57-3.08,6.28-3.38,4.32-7.92
			c-7.39,0.53-3.67,12.18-10.08,13.68c-0.44-0.51-0.16-1.75-0.24-2.64c-1.83,0.84-5,4.97-8.16,2.399
			c-2.24-3.83,0.66-8.939-0.24-13.439c-5.91,1.46-2.67,12.05-8.4,13.68c-0.99,0.04-0.25-1.67-0.48-2.399
			c-2.56,3.17-7.22,4.55-8.4-0.961c-1.36,2.69-6.91,5.29-7.92,0.48c-2.85,0.22-2.59,2.95-4.8,3.36c-5.92,1.12-4.31-7.29-3.6-11.761
			c-3.9,0.03-2.11,5.73-4.8,6.96c-0.64-3.67,2.54-7.909,0.72-12c1.71,1.101,7.38,0.301,10.08,1.2c-0.11,5.021-3.87,8.101-2.4,13.2
			c6.05-0.65,3.16-12.8,8.64-14.16c3.04-0.75,6.24,0.811,10.08-0.24c-0.17,5.21-2.87,8.83-1.92,14.4c7.37,0.18,2.04-12.36,6-15.6
			c1.89-0.21,2.82,0.54,4.32,0.72c-0.21,1.79-0.75,3.26-1.2,4.8c2.55-0.729,3.1-5.54,7.92-4.8c2.75,4.3-1.62,10.03,0.24,14.88
			c8.85-1.92,0.43-27.57,13.2-23.28c-1.6,4.16-3.34,8.181-4.08,13.2c3.15-1.58,4.35-6.34,9.84-4.8c2.45,4.02-1.07,8.97-5.04,9.6
			C84.98,31.803,91.13,30.712,92.62,25.553z M45.82,29.633c4.6-1.08,3.84-7.521,5.04-12C45.18,17.732,44.97,24.412,45.82,29.633z"/>
		<path fill="#750096" d="M39.34,2.032c1.47,0.83,1.17,3.08,0.72,4.8c-10.97,1.99-26.93-1.01-29.28,9.601
			c-1.1-1.57-2.53-2.99-2.16-5.521c1.08-7.47,23.29-3.33,29.52-8.16C38.6,2.402,38.36,1.862,39.34,2.032z"/>
		<path fill="#750096" d="M28.06,19.313c0.42,3.78-1.03,5.689-4.56,5.52c-2.72,2.681-3.39,7.17-6.72,9.84
			c-4.63,3.721-11.72,1.131-12-4.319c-0.39-7.53,6.63-7.82,12.96-9.12c2.51-4.73,1.77-14.85,10.08-12.24
			c-2.33,2.71-3.01,7.07-3.84,11.28C25.48,20.982,26.45,19.282,28.06,19.313z M12.7,34.912c3.22-1.819,4.31-5.76,5.04-10.08
			C9.48,19.982,1.8,35.853,12.7,34.912z"/>
	</g>
</g>
</svg>
